<svg width="22pt" height="16pt" viewBox="0 0 26 18" xmlns="http://www.w3.org/2000/svg">
  <!--
    5:3 IMK menu icon source.
    Keep this as one plain black evenodd compound path. The bracket and "紫"
    glyph are knockout subpaths, so the source does not depend on fonts or
    external rendering primitives.
  -->
  <path
    fill="black"
    fill-rule="evenodd"
    d="
      M 4 0
      H 22
      A 4 4 0 0 1 26 4
      V 14
      A 4 4 0 0 1 22 18
      H 4
      A 4 4 0 0 1 0 14
      V 4
      A 4 4 0 0 1 4 0
      Z

      M 3.4 3.4
      H 4.9
      V 4.5
      H 4.3
      V 13.5
      H 4.9
      V 14.6
      H 3.4
      Z

      M 21.1 3.4
      H 22.6
      V 14.6
      H 21.1
      V 13.5
      H 21.7
      V 4.5
      H 21.1
      Z

      M 7.638 12.224
      C 7.988 12.196 8.254 12.182 8.324 12.168
      C 11.726 12.084 11.726 12.084 12.566 12.042
      V 13.358
      C 12.566 13.554 12.286 13.68 11.796 13.68
      C 11.418 13.68 11.11 13.652 10.62 13.554
      C 10.858 14.128 10.9 14.338 11.012 15.136
      C 11.278 15.15 11.474 15.15 11.614 15.164
      C 11.88 15.178 12.062 15.192 12.132 15.192
      C 12.678 15.192 13.28 15.08 13.546 14.912
      C 13.896 14.688 14.12 14.226 14.12 13.666
      V 11.972
      C 16.248 11.86 16.92 11.818 17.718 11.762
      C 17.998 12.098 18.068 12.196 18.32 12.546
      L 19.398 11.65
      C 19.048 11.146 18.908 10.978 18.418 10.446
      C 17.984 9.984 17.984 9.984 17.158 9.298
      L 16.066 9.97
      C 16.416 10.278 16.514 10.376 16.836 10.698
      C 16.332 10.754 16.08 10.768 15.674 10.782
      C 13.406 10.88 12.468 10.922 12.132 10.964
      C 11.432 11.048 11.432 11.048 10.97 11.104
      C 11.922 10.908 12.538 10.74 13.364 10.46
      C 14.68 9.998 15.674 9.592 16.29 9.242
      L 14.988 8.402
      C 14.666 8.598 14.666 8.598 13.714 9.102
      C 12.118 9.172 11.194 9.2 10.914 9.228
      C 12.16 8.85 12.888 8.57 13.476 8.206
      L 12.342 7.422
      C 11.824 7.772 11.698 7.828 10.872 8.206
      C 10.228 8.5 9.584 8.738 9.192 8.822
      C 8.646 8.948 8.646 8.948 8.38 9.032
      L 8.716 10.166
      C 9.08 10.138 9.08 10.138 9.346 10.124
      C 10.172 10.11 10.172 10.11 10.452 10.096
      C 10.788 10.082 10.956 10.082 11.544 10.054
      C 9.85 10.698 9.22 10.838 7.372 11.034
      Z

      M 11.446 3.642
      C 11.446 3.194 11.474 2.774 11.516 2.382
      H 9.962
      C 10.032 2.802 10.046 3.124 10.046 3.768
      V 6.386
      C 9.444 6.456 9.444 6.456 9.178 6.484
      C 9.122 6.484 9.108 6.484 9.066 6.498
      V 4.636
      C 9.066 4.104 9.094 3.656 9.136 3.39
      H 7.582
      C 7.638 3.67 7.666 4.09 7.666 4.678
      V 6.61
      C 7.232 6.652 6.924 6.666 6.812 6.666
      C 6.77 6.666 6.686 6.666 6.588 6.652
      L 6.812 8.234
      C 7.036 8.178 7.148 8.164 7.372 8.122
      C 9.85 7.8 11.376 7.548 13.308 7.156
      L 13.294 5.91
      C 12.608 6.036 11.726 6.176 11.446 6.218
      V 4.93
      H 12.188
      C 12.72 4.93 12.958 4.944 13.294 4.986
      V 3.572
      C 12.958 3.628 12.664 3.642 12.188 3.642
      Z

      M 15.296 3.418
      C 15.296 2.928 15.31 2.704 15.366 2.382
      H 13.784
      C 13.826 2.704 13.854 2.984 13.854 3.488
      V 6.708
      C 13.854 7.548 14.316 7.744 16.29 7.744
      C 18.894 7.744 19.118 7.576 19.328 5.532
      C 18.698 5.434 18.446 5.35 17.914 5.07
      C 17.9 5.602 17.858 5.98 17.802 6.134
      C 17.704 6.358 17.368 6.428 16.402 6.428
      C 15.436 6.428 15.296 6.372 15.296 6.022
      V 5.21
      C 16.822 4.846 17.83 4.538 19.118 3.992
      L 18.124 2.76
      C 17.354 3.25 16.43 3.614 15.296 3.894
      Z

      M 9.906 12.224
      C 9.836 12.28 9.668 12.406 9.416 12.588
      C 9.038 12.854 8.884 12.938 8.534 13.106
      C 8.002 13.358 7.526 13.526 6.658 13.75
      C 7.19 14.31 7.344 14.52 7.596 15.024
      C 9.22 14.408 9.85 14.058 11.012 13.106
      Z

      M 14.988 13.218
      C 16.794 13.96 16.934 14.03 18.53 15.01
      L 19.314 13.666
      C 18.292 13.106 17.368 12.714 15.884 12.182
      Z
    "
  />
</svg>
